<?xml version="1.0" encoding="UTF-8"?>
<svg id="Layer_3" data-name="Layer 3" xmlns="http://www.w3.org/2000/svg" viewBox="0 0 919.38 350.41">
  <path d="M161.98,192.14c6.43.84,12.16,7.7,17.66,12.76,7.66,7.38,15.17,14.89,22.55,22.55,6.09,6.25,12.67,12.95,16.19,20.83,9.98,20.49,5.04,45.72-11.05,61.39-10.74,11.44-21.93,22.89-33.46,33.55-5.77,6.13-14.92,9.99-22.46,4.66-21.84-19.02-41.86-41.05-62.5-61.43-11.02-10.09-11.3-19.81-.29-30.13,18.4-18.95,37.13-37.68,56.13-56.15,4.51-4.57,10.24-9.17,16.92-8.07l.3.04h0Z"/>
  <path d="M66.17,96.09c6.39.75,9.97,5.11,14.55,9.73,6.71,6.69,13.64,13.67,22.37,22.39,10.01,10.03,19.01,19.01,27.49,27.51,4.26,4.67,9.81,8.36,11.47,14.16,3.14,8.31-2.64,15.91-8.51,21.39-19.95,19.83-39.73,40.76-60.43,59.72-13.42,10.29-24.44-4.56-33.79-13.57-13.44-14.39-32.09-28.01-37.28-47.48-5.55-19.13.53-40.1,14.66-54.01,8.85-9.23,18.17-18.48,27.32-27.52,6.1-5.93,12.61-13.73,21.87-12.34l.29.04v-.02Z"/>
  <path d="M161.99.21c6.51.85,12.33,7.89,17.92,13.01,7.65,7.39,15.16,14.9,22.55,22.56,27.09,24.08,28.39,59.85,2.26,84.99-10.45,10.94-21.31,21.72-32.42,31.88-5.55,5.56-14.09,8.03-20.88,3.29-21.83-19.03-41.86-41.05-62.5-61.43-11.83-10.76-10.82-21.02.74-31.52,18.28-18.35,36.68-36.61,55.17-54.75,4.52-4.61,10.11-9.2,16.87-8.07l.3.04h0Z"/>
  <path d="M320.82,165.67c-.45,1.59-8.42,1.45-9.46.7-.5-.35-1.52-7.17-2.04-8.68-5.69-16.51-27.61-17.43-35.08-1.83-6.69,13.99-5.27,46.28,14.92,48.08,11.44,1.02,18.64-5.58,20.86-16.4,1.77-.44,9.35-1.08,10.12.48,1.04,2.11-1.51,9.32-2.65,11.52-7.37,14.21-24.72,16.67-39.12,13.42-35.39-7.99-38.6-60.93-6.12-75,11.14-4.82,24.94-4.37,35.06,2.63.81-.39,4.11-4.32,4.42-4.32h8.41s.66.62.66.66v28.76l.02-.02Z"/>
  <path d="M793.69,159.25h23.69c.08,0,1.11,1.03,1.11,1.11v7.74c5.98-6.9,11.2-11.46,20.97-10.56,21.9,2,12.15,28.34,14.64,42.89,1.19,4.97,8.16,1.08,8.69,5.04.37,2.78.76,6.15-2.43,6.46-8.94.87-19.29-.72-28.38,0-2.71.55-2.3-6.43-1.75-7.54.84-1.73,6.44-.04,7.21-3.41-.42-8.8.88-18.68.11-27.36-.76-8.55-11.34-8.11-15.75-2.43-5.37,6.93-1.93,21.3-2.77,29.78.77,3.37,6.37,1.68,7.21,3.41.45.92.42,6.13-.18,6.9-1.1,1.41-27.84.28-31.61.53-1.83-.54-1.81-7.71,0-8.23,3.61-1.03,7.15,1.35,7.99-4.41.82-5.64.64-20.1.13-26-.11-1.28-.51-3.87-1.54-4.65-2.01-1.52-6.73-.05-7.55-1.74-.47-.97-.21-7.52.22-7.52"/>
  <path d="M478,211.46c-.44-.14-.96.44-1.11.44h-30.99s-.66-.62-.66-.66v-7.08c0-1.49,7.77.82,8.76-3.63-.47-9.21.94-19.62.12-28.69-.25-2.73-1.03-3.79-3.83-4.14-.99-.13-5.05.32-5.05-.7v-7.08s.62-.66.66-.66h23.47s.66.62.66.66v8.18c5.46-5.24,9.2-10.26,17.47-10.64,24.85-1.13,16.69,24.12,17.94,40.08.08.99.33,2.9.67,3.75,1.32,3.25,8.2,1.51,8.2,2.87v7.08s-.62.66-.66.66h-30.99s-.66-.62-.66-.66v-7.08c1.46-1.26,3.85-.32,5.72-1.36,1.49-.83,1.69-2.84,1.82-4.38.41-4.82.59-23.29-.76-27.14-1.79-5.09-7.94-5.22-12.12-2.98-9.56,5.13-5.28,23.31-6.08,32.23,1.1,3.8,5.02,2.18,7.43,3.63v7.3h-.01Z"/>
  <path d="M352.16,157.6c16.71-1.88,32.55,4.84,35.47,22.72,3.9,23.9-16.05,36.9-38.04,32.7-30.64-5.84-29.24-51.84,2.57-55.42M356.59,166.01c-12.45,1.14-12.58,19.98-10.31,29.09,1.82,7.31,7.22,11.72,14.95,9.62,10.07-2.73,10.03-20.62,8.09-28.67-1.55-6.43-5.79-10.68-12.73-10.04"/>
  <path d="M755.52,157.6c17.01-1.92,32.75,5.02,35.46,23.17,3.55,23.73-16.19,36.42-38.03,32.25-30.66-5.85-29.26-51.83,2.57-55.42M759.95,166.01c-4.09.37-7.1,2.48-8.93,6.13-3.72,7.41-4.13,28.28,5.04,32.03,9.91,4.04,16.42-3.43,17.26-12.84.87-9.72.35-26.57-13.37-25.31"/>
  <path d="M629.87,212.35v-17.92s.62-.66.66-.66h8.41c3.4,7.62,9.62,11.76,18.17,11.08,7.02-.56,10.5-6.78,3.02-10.13-10.04-4.49-30.7-4.28-30.73-20.2-.03-16.27,20.99-19.93,33.36-15.6,1.29.45,3.5,2.06,4.57,2.12,1.58.09,2.66-2.22,3.06-2.22h7.09s.66.62.66.66v16.37s-.62.66-.66.66h-7.09c-.39,0-3.73-5.14-4.88-6.18-3.63-3.28-9.27-5.07-14.12-4.4-5.59.77-7.39,6.89-1.69,9.58,9.73,4.59,28.74,3.35,30.99,17.7,2.73,17.45-16.34,22.82-30.09,19.89-2.16-.46-8.46-3.44-9.45-3.39-1.22.07-2.32,2.59-4.06,2.98-.89.2-7.21.14-7.21-.35"/>
  <path d="M882.69,187.57c-.21,9.64,3.07,17.21,13.96,16.39,3.13-.23,6.04-1.45,7.92-4.03,1.23-1.69,1.92-5.84,3.58-6.15,1.09-.21,8.26-.15,9.06.21,1.4.64.25,3.91-.12,5.18-3.98,13.36-20.55,16.67-32.64,13.85-29.21-6.81-25.7-54.53,6.4-56,17.53-.8,29.04,11.14,28.52,28.58-.02.54-.7,1.97-1.05,1.97h-35.64,0ZM902.17,178.72c1.85-17.01-21.25-17.06-19.04,0h19.04Z"/>
  <path d="M534.23,187.57c-.1,9.78,3.3,17.43,14.39,16.37,3.13-.3,5.63-1.46,7.49-4.01,1.08-1.48,2.22-5.91,3.58-6.16,1.07-.2,8.33-.13,9.07.22,1.45.69.38,4-.02,5.29-4.73,15.13-26.03,17.74-38.59,11.62-20.84-10.15-17.65-46.17,5.06-52.65,19.5-5.56,36.08,6.52,35.81,26.9,0,.71-.43,2.43-1.15,2.43h-35.64,0ZM553.72,178.72c1.91-17.04-21.06-17.07-19.04,0h19.04Z"/>
  <path d="M597.33,159.25c1.56.47.85,4.55,1.33,5.75,7.12-11.46,27.51-9.53,25.9,6.41-1.37,13.55-22.3,9.51-16.77-2.16,1.02-2.16,2.12-2.11,3.8-3.27.3-.21,1.24-.26.58-.98-.39-.43-2.97-.5-3.72-.41-4.1.49-7.66,4.65-8.89,8.38-1.44,4.38-1.85,22.47-1.01,27.09,1.02,5.66,9.03,2.09,10.56,4.04.77.98.76,7.79-.71,7.79h-34.09s-.66-.62-.66-.66v-7.08c0-1.56,7.51.87,8.31-3.64.92-5.17.64-23.03.13-28.68-.25-2.76-1.03-3.76-3.83-4.14-.92-.13-4.61.3-4.61-.7v-7.08s.62-.66.66-.66h23.02Z"/>
  <path d="M708.24,159.25h13.06s.66.62.66.66v7.52s-.62.66-.66.66h-13.06v31.64c0,.12.79,1.95.94,2.16,1.01,1.46,4.03,1.58,5.44.67,2.2-1.41,1.69-8.81,2.7-8.81h6.64c2.09,0,.42,8.7,0,10.18-3.59,13-25.72,13.16-30.56,1.32-.73-1.79-1.55-5.96-1.55-7.74v-29.42h-6.86c-1.73,0-1.28-7.26-.41-8.81.71-1.27,11.41-11.86,13.02-13.1.88-.68,1.78-1.31,2.91-1.52,1.26.77,7.72-.09,7.72,1.09v13.5h0Z"/>
  <path d="M429.3,165.01c-5.68-1.98-11.06,2.55-12.85,7.72-1.84,5.31-1.83,19.81-1.33,25.69.2,2.34.38,3.98,2.82,4.71,5.5,1.65,9.53-2.7,8.29,6.8-.23,1.79-.78,1.84-2.43,2-9.92.96-21.39-.79-31.48,0-2.84.57-2.25-6.94-1.57-7.81,1.22-1.55,6.49.76,7.89-3.17,1.19-3.35.89-22.35.58-26.89-.1-1.46-.38-4.66-1.55-5.53-1.93-1.45-6.32-.11-7.11-1.75-.55-1.12-.96-8.09,1.75-7.54l21.63.11c2.28.67.6,6.07,1.42,6.11,7.05-12.56,28.63-9.74,25.8,7.19-1.66,9.88-18.84,10.21-17.12-1.63.46-3.17,3.18-4.1,5.27-6.01"/>
  <path d="M913.24,247.3h-8.63c-1.35,0-1.35-3.54,0-3.54h11.07c.17,0,1,.52,1.14.74.6.97.6,8.96.42,10.55-.55,4.73-10.45,6.69-14.39,6.4-20.25-1.52-19.2-34.05,3.11-32.75,2.24.13,11.98,2.78,9.54,6.01-1.74,2.3-3.97-.69-6.11-1.47-20.14-7.39-23.72,26.89-3.05,24.63,1.1-.12,6.91-1.99,6.91-2.83v-7.74h0Z"/>
  <path d="M593.01,228.83c22.47-3.02,25.01,31.27,3.42,32.62-21.1,1.32-22.99-29.99-3.42-32.62M593.46,232.37c-14.89,1.96-13.04,27.19,3.38,25.5,15.68-1.61,13.83-27.76-3.38-25.5"/>
  <path d="M685.22,253.94v-23.67c0-1.35,3.54-1.35,3.54,0v29.64c0,1-2.79,1.57-3.52.41l-19.51-24.53v24.11c0,1.41-3.54,1-3.54.66v-30.31c0-.78,1.91-1.29,2.78-1.03,1.81.54,16.12,20.42,18.93,23.58.36.41.77.99,1.31,1.12"/>
  <path d="M872.95,253.94v-23.67c0-1.35,3.54-1.35,3.54,0v29.64c0,.06-.69.79-.89.89-1.51.73-2.16-.37-3.1-1.32-6.07-6.12-11.43-15.45-17.27-22.12-.49-.56-1.07-1.27-1.76-1.56v24.11c0,1.35-3.54,1.35-3.54,0v-29.64c0-1.09,3.18-1.57,3.96-.42l19.06,24.09h0Z"/>
  <path d="M738.79,232.7v10.62h16.16c1.01,0,1.61,3.1.44,3.1h-15.94s-.66.62-.66.66v10.4h18.37c1.01,0,1.61,3.1.44,3.1h-21.69s-.66-.62-.66-.66v-29.64c0-.54,1.83-1.04,2.43-1.12,3.41-.4,14.89-.48,18.14.03,3.37.53,2.24,3.51,1.35,3.51h-18.38Z"/>
  <path d="M710.35,228.84c2.7-.26,11.76,1.23,12.07,4.54.4,4.19-5.47.01-7.1-.47-3.66-1.07-9.68-.98-10.45,3.75-1.03,6.33,10.41,6.25,14.45,8.62,8.79,5.16,3.33,15.91-6.02,16.18-2.81.08-12.54-2.3-13.04-5.57-.74-4.74,6.13.6,7.74,1.14,4.72,1.59,13.19.91,11.66-5.9-1.2-5.33-15.67-3.1-18.09-10.69-2.05-6.45,2.62-11.04,8.78-11.63"/>
  <path d="M622.79,230.27c.48-1.7,3.54-1.06,3.54,0v18.14c0,.48.75,3.21.99,3.88,2.54,7.12,14.04,7.52,16.95.76.24-.56,1.11-3.39,1.11-3.76v-19.02c0-1.35,3.54-1.35,3.54,0v20.8c0,.4-1.11,3.31-1.41,3.9-4.13,8.04-17.47,8.64-22.43,1.33-.68-1-2.29-4.62-2.29-5.68v-20.35h0Z"/>
  <path d="M569.96,232.83c1.19,1.47.54,3.47-1.41,3.45-1.04,0-5.2-3.62-8.46-3.97-18.83-2.07-17.33,29.83,1.77,25.12,3.17-.78,3.74-2.3,5.87-3.43,2.34-1.24,3.62.86,2.4,2.85-1.44,2.34-8.12,4.53-10.86,4.63-21.43.84-22.22-31.46-1.81-32.77,3.35-.22,10.34,1.45,12.5,4.12"/>
  <path d="M789.49,257.48c1.5.42,1.63,3.14-.91,3.5-3.7.53-12.93.38-16.82.06-2.48-.21-2.67-.42-2.88-2.88-.73-8.77.57-18.56.03-27.44.48-2.54,3.97-1.71,3.97.43v26.32h16.61Z"/>
  <path d="M801.22,260.57c.14-.43-.44-.96-.44-1.11v-29.2c0-1.35,3.54-1.35,3.54,0v26.55s.62.66.66.66h16.38c.94,0,1.41,3.1,0,3.1h-20.15.01Z"/>
  <path d="M836.09,260.46c-1.31,1.31-3.19.52-3.46-1.42-1.13-8.38.9-19.26,0-27.92.37-2.82,3.62-2.94,4.01.46.71,6.19.54,20.22,0,26.57-.06.69-.07,1.81-.57,2.31"/>
</svg>